<svg xmlns="http://www.w3.org/2000/svg" viewBox="0 0 533.5 544.3">
  <path fill="#4285f4" d="M533.5 278.4c0-17.7-1.5-34.9-4.3-51.5H272v97.6h146.9c-6.3 34.1-25.3 62.9-54 82.2v68.3h87.1c51-46.9 80.5-116.1 80.5-196.6z"></path>
  <path fill="#34a853" d="M272 544.3c73 0 134.2-24.1 178.9-65.3l-87.1-68.3c-24.2 16.3-55.1 25.9-91.8 25.9-70.6 0-130.4-47.5-151.9-111.2h-90.4v69.9c44.2 87.2 135.8 149 242.3 149z"></path>
  <path fill="#fbbc04" d="M120.2 316.6c-10.3-30.3-10.3-63.2 0-93.5V153.2h-90.4c-19.6 39.4-30.9 83.7-30.9 130.1s11.3 90.7 30.9 130.1l90.4-69.9z"></path>
  <path fill="#ea4335" d="M272 107.9c37.9-.6 74.1 13.5 101.7 39.8l76.2-76.2C406.2 24.3 345 0 272 0 165.5 0 73.9 61.8 29.7 149L120.2 218c21.5-63.7 81.3-111.1 151.8-110.1z"></path>
</svg>
